<?xml version="1.0" encoding="iso-8859-1"?>
<!-- Generator: Adobe Illustrator 18.1.1, SVG Export Plug-In . SVG Version: 6.00 Build 0)  -->
<svg version="1.1" id="Capa_1" xmlns="http://www.w3.org/2000/svg" xmlns:xlink="http://www.w3.org/1999/xlink" x="0px" y="0px"
	 viewBox="0 0 39.53 39.53" style="enable-background:new 0 0 39.53 39.53;" xml:space="preserve">
<g>
	<g>
		<path style="fill:#010002;" d="M36.12,4.855h-5.526c-0.112-1.936-0.554-3.311-1.315-4.082c-0.607-0.619-1.427-0.879-2.349-0.734
			c-2.586,0.404-2.692,3.702-2.653,4.816H13.228c-0.114-1.923-0.555-3.287-1.312-4.057c-0.607-0.616-1.422-0.871-2.348-0.732
			c-2.569,0.4-2.689,3.681-2.654,4.789H3.409c-0.957,0-1.737,0.779-1.737,1.737v31.202c0,0.957,0.78,1.736,1.737,1.736h21.168
			c0.613,0,1.316-0.287,1.82-0.736c0.131-0.099,0.242-0.209,0.338-0.34l10.387-13.763c0.429-0.563,0.736-1.487,0.736-2.194V6.592
			C37.859,5.634,37.079,4.855,36.12,4.855z M27.208,1.801c0.336-0.055,0.587,0.005,0.801,0.223c0.439,0.447,0.716,1.423,0.799,2.831
			h-2.746C26.017,3.948,26.143,1.967,27.208,1.801z M9.845,1.829c0.339-0.058,0.588,0.008,0.8,0.223
			c0.439,0.444,0.714,1.41,0.799,2.804H8.7C8.68,4.157,8.712,2.004,9.845,1.829z M26.314,36.433V24.416
			c0-0.103,0.082-0.184,0.184-0.184h9.023L26.314,36.433z M36.304,22.497c0,0.053-0.006,0.116-0.02,0.192
			c-0.055-0.006-0.108-0.01-0.164-0.01h-9.623c-0.959,0-1.738,0.778-1.738,1.737v13.377c0,0.052,0.002,0.103,0.006,0.151
			c-0.072,0.021-0.138,0.03-0.188,0.03H3.407c-0.101,0-0.183-0.081-0.183-0.184V13.332h33.08V22.497z M36.306,11.548H3.226V6.592
			H3.225c0-0.102,0.082-0.183,0.183-0.183h8.056c-0.011,0.392-0.032,0.796-0.063,1.206c-0.729,0.261-1.22,0.934-1.22,1.705
			c0,1.017,0.827,1.844,1.844,1.844s1.844-0.827,1.844-1.844c0-0.551-0.251-1.055-0.697-1.409c0.043-0.512,0.071-1.015,0.082-1.502
			h15.571c-0.012,0.442-0.037,0.901-0.076,1.366c-0.538,0.338-0.866,0.915-0.866,1.545c0,1.017,0.825,1.844,1.844,1.844
			c1.017,0,1.845-0.827,1.845-1.844c0-0.692-0.402-1.323-1.021-1.633c0.033-0.429,0.056-0.857,0.065-1.278h5.506
			c0.101,0,0.184,0.081,0.184,0.183V11.548z"/>
		<path style="fill:#010002;" d="M6.931,21.277h0.91c1.147,0,2.081-0.934,2.081-2.081v-0.91c0-1.147-0.934-2.08-2.081-2.08h-0.91
			c-1.147,0-2.08,0.934-2.08,2.08v0.91C4.851,20.343,5.784,21.277,6.931,21.277z M6.634,18.286c0-0.163,0.133-0.297,0.297-0.297
			h0.91c0.164,0,0.297,0.134,0.297,0.297v0.91c0,0.164-0.134,0.298-0.297,0.298h-0.91c-0.164,0-0.297-0.134-0.297-0.298V18.286z"/>
		<path style="fill:#010002;" d="M13.213,21.277h0.91c1.147,0,2.081-0.934,2.081-2.081v-0.91c-0.001-1.147-0.934-2.08-2.081-2.08
			h-0.91c-1.147,0-2.081,0.934-2.081,2.08v0.91C11.132,20.343,12.066,21.277,13.213,21.277z M12.915,18.286
			c0-0.163,0.134-0.297,0.297-0.297h0.91c0.164,0,0.297,0.134,0.297,0.297v0.91c0,0.164-0.134,0.298-0.297,0.298h-0.91
			c-0.164,0-0.297-0.134-0.297-0.298V18.286z"/>
		<path style="fill:#010002;" d="M19.495,21.277h0.91c1.146,0,2.08-0.934,2.08-2.081v-0.91c0-1.147-0.934-2.08-2.08-2.08h-0.91
			c-1.147,0-2.082,0.934-2.082,2.08v0.91C17.414,20.343,18.348,21.277,19.495,21.277z M19.197,18.286
			c0-0.163,0.134-0.297,0.296-0.297h0.91c0.164,0,0.299,0.134,0.299,0.297v0.91c0,0.164-0.135,0.298-0.299,0.298h-0.91
			c-0.164,0-0.296-0.134-0.296-0.298V18.286z"/>
		<path style="fill:#010002;" d="M6.931,27.163h0.91c1.147,0,2.081-0.935,2.081-2.082v-0.91c0-1.146-0.934-2.08-2.081-2.08h-0.91
			c-1.147,0-2.08,0.934-2.08,2.08v0.91C4.851,26.228,5.784,27.163,6.931,27.163z M6.634,24.17c0-0.164,0.133-0.297,0.297-0.297h0.91
			c0.164,0,0.297,0.133,0.297,0.297v0.91c0,0.164-0.134,0.297-0.297,0.297h-0.91c-0.164,0-0.297-0.133-0.297-0.297V24.17z"/>
		<path style="fill:#010002;" d="M13.213,27.163h0.91c1.147,0,2.081-0.935,2.081-2.082v-0.91c-0.001-1.146-0.934-2.08-2.081-2.08
			h-0.91c-1.147,0-2.081,0.934-2.081,2.08v0.91C11.132,26.228,12.066,27.163,13.213,27.163z M12.915,24.17
			c0-0.164,0.134-0.297,0.297-0.297h0.91c0.164,0,0.297,0.133,0.297,0.297v0.91c0,0.164-0.134,0.297-0.297,0.297h-0.91
			c-0.164,0-0.297-0.133-0.297-0.297V24.17z"/>
		<path style="fill:#010002;" d="M19.495,27.163h0.91c1.146,0,2.08-0.935,2.08-2.082v-0.91c0-1.146-0.934-2.08-2.08-2.08h-0.91
			c-1.147,0-2.082,0.934-2.082,2.08v0.91C17.414,26.228,18.348,27.163,19.495,27.163z M19.197,24.17
			c0-0.164,0.134-0.297,0.296-0.297h0.91c0.164,0,0.299,0.133,0.299,0.297v0.91c0,0.164-0.135,0.297-0.299,0.297h-0.91
			c-0.164,0-0.296-0.133-0.296-0.297V24.17z"/>
		<path style="fill:#010002;" d="M6.931,33.047h0.91c1.147,0,2.081-0.935,2.081-2.08v-0.911c0-1.146-0.934-2.08-2.081-2.08h-0.91
			c-1.147,0-2.08,0.935-2.08,2.08v0.911C4.851,32.113,5.784,33.047,6.931,33.047z M6.634,30.056c0-0.163,0.133-0.298,0.297-0.298
			h0.91c0.164,0,0.297,0.135,0.297,0.298v0.911c0,0.162-0.134,0.297-0.297,0.297h-0.91c-0.164,0-0.297-0.135-0.297-0.297V30.056z"/>
		<path style="fill:#010002;" d="M13.213,33.047h0.91c1.147,0,2.081-0.935,2.081-2.08v-0.911c-0.001-1.146-0.934-2.08-2.081-2.08
			h-0.91c-1.147,0-2.081,0.935-2.081,2.08v0.911C11.132,32.113,12.066,33.047,13.213,33.047z M12.915,30.056
			c0-0.163,0.134-0.298,0.297-0.298h0.91c0.164,0,0.297,0.135,0.297,0.298v0.911c0,0.162-0.134,0.297-0.297,0.297h-0.91
			c-0.164,0-0.297-0.135-0.297-0.297V30.056z"/>
		<path style="fill:#010002;" d="M19.495,33.047h0.91c1.146,0,2.08-0.935,2.08-2.08v-0.911c0-1.146-0.934-2.08-2.08-2.08h-0.91
			c-1.147,0-2.082,0.935-2.082,2.08v0.911C17.414,32.113,18.348,33.047,19.495,33.047z M19.197,30.056
			c0-0.163,0.134-0.298,0.296-0.298h0.91c0.164,0,0.299,0.135,0.299,0.298v0.911c0,0.162-0.135,0.297-0.299,0.297h-0.91
			c-0.164,0-0.296-0.135-0.296-0.297V30.056z"/>
		<path style="fill:#010002;" d="M25.777,21.277h0.91c1.146,0,2.081-0.934,2.081-2.081v-0.91c0-1.147-0.935-2.08-2.081-2.08h-0.91
			c-1.146,0-2.08,0.934-2.08,2.08v0.91C23.697,20.343,24.631,21.277,25.777,21.277z M25.48,18.286c0-0.163,0.135-0.297,0.297-0.297
			h0.91c0.164,0,0.299,0.134,0.299,0.297v0.91c0,0.164-0.135,0.298-0.299,0.298h-0.91c-0.162,0-0.297-0.134-0.297-0.298V18.286z"/>
		<path style="fill:#010002;" d="M32.058,21.277h0.91c1.146,0,2.081-0.934,2.081-2.081v-0.91c0-1.147-0.933-2.08-2.081-2.08h-0.91
			c-1.146,0-2.08,0.934-2.08,2.08v0.91C29.978,20.343,30.911,21.277,32.058,21.277z M31.761,18.286c0-0.163,0.134-0.297,0.297-0.297
			h0.91c0.164,0,0.298,0.134,0.298,0.297v0.91c0,0.164-0.134,0.298-0.298,0.298h-0.91c-0.163,0-0.297-0.134-0.297-0.298V18.286z"/>
	</g>
</g>
<g>
</g>
<g>
</g>
<g>
</g>
<g>
</g>
<g>
</g>
<g>
</g>
<g>
</g>
<g>
</g>
<g>
</g>
<g>
</g>
<g>
</g>
<g>
</g>
<g>
</g>
<g>
</g>
<g>
</g>
</svg>
